<svg width="217" height="92" viewBox="0 0 217 92" fill="none" xmlns="http://www.w3.org/2000/svg">
<path d="M15.6562 26.5391L23.3906 0.875H31.2188L19.3359 35H12L0.164062 0.875H7.96875L15.6562 26.5391ZM41.9297 35H34.8984V0.875H41.9297V35ZM59.1562 21.3125L55.5 25.25V35H48.4688V0.875H55.5V16.3438L58.5938 12.1016L67.2891 0.875H75.9375L63.8203 16.0391L76.2891 35H67.9219L59.1562 21.3125ZM104.625 6.57031H94.1719V35H87.1406V6.57031H76.8281V0.875H104.625V6.57031ZM136.031 18.7109C136.031 22.0703 135.438 25.0156 134.25 27.5469C133.062 30.0781 131.359 32.0312 129.141 33.4062C126.938 34.7812 124.406 35.4688 121.547 35.4688C118.719 35.4688 116.195 34.7891 113.977 33.4297C111.758 32.0703 110.039 30.1328 108.82 27.6172C107.602 25.0859 106.984 22.1797 106.969 18.8984V17.2109C106.969 13.8516 107.57 10.8984 108.773 8.35156C109.992 5.78906 111.703 3.82812 113.906 2.46875C116.125 1.09375 118.656 0.40625 121.5 0.40625C124.344 0.40625 126.867 1.09375 129.07 2.46875C131.289 3.82812 133 5.78906 134.203 8.35156C135.422 10.8984 136.031 13.8438 136.031 17.1875V18.7109ZM128.906 17.1641C128.906 13.5859 128.266 10.8672 126.984 9.00781C125.703 7.14844 123.875 6.21875 121.5 6.21875C119.141 6.21875 117.32 7.14062 116.039 8.98438C114.758 10.8125 114.109 13.5 114.094 17.0469V18.7109C114.094 22.1953 114.734 24.8984 116.016 26.8203C117.297 28.7422 119.141 29.7031 121.547 29.7031C123.906 29.7031 125.719 28.7812 126.984 26.9375C128.25 25.0781 128.891 22.375 128.906 18.8281V17.1641ZM153.773 22.5078H148.172V35H141.141V0.875H153.82C157.852 0.875 160.961 1.77344 163.148 3.57031C165.336 5.36719 166.43 7.90625 166.43 11.1875C166.43 13.5156 165.922 15.4609 164.906 17.0234C163.906 18.5703 162.383 19.8047 160.336 20.7266L167.719 34.6719V35H160.172L153.773 22.5078ZM148.172 16.8125H153.844C155.609 16.8125 156.977 16.3672 157.945 15.4766C158.914 14.5703 159.398 13.3281 159.398 11.75C159.398 10.1406 158.938 8.875 158.016 7.95312C157.109 7.03125 155.711 6.57031 153.82 6.57031H148.172V16.8125ZM179.273 35H172.242V0.875H179.273V35ZM205.5 27.9688H193.172L190.828 35H183.352L196.055 0.875H202.57L215.344 35H207.867L205.5 27.9688ZM195.07 22.2734H203.602L199.312 9.5L195.07 22.2734ZM20.7422 82.0469C20.7422 80.7188 20.2734 79.7031 19.3359 79C18.3984 78.2812 16.7109 77.5312 14.2734 76.75C11.8359 75.9531 9.90625 75.1719 8.48438 74.4062C4.60938 72.3125 2.67188 69.4922 2.67188 65.9453C2.67188 64.1016 3.1875 62.4609 4.21875 61.0234C5.26562 59.5703 6.75781 58.4375 8.69531 57.625C10.6484 56.8125 12.8359 56.4062 15.2578 56.4062C17.6953 56.4062 19.8672 56.8516 21.7734 57.7422C23.6797 58.6172 25.1562 59.8594 26.2031 61.4688C27.2656 63.0781 27.7969 64.9062 27.7969 66.9531H20.7656C20.7656 65.3906 20.2734 64.1797 19.2891 63.3203C18.3047 62.4453 16.9219 62.0078 15.1406 62.0078C13.4219 62.0078 12.0859 62.375 11.1328 63.1094C10.1797 63.8281 9.70312 64.7812 9.70312 65.9688C9.70312 67.0781 10.2578 68.0078 11.3672 68.7578C12.4922 69.5078 14.1406 70.2109 16.3125 70.8672C20.3125 72.0703 23.2266 73.5625 25.0547 75.3438C26.8828 77.125 27.7969 79.3438 27.7969 82C27.7969 84.9531 26.6797 87.2734 24.4453 88.9609C22.2109 90.6328 19.2031 91.4688 15.4219 91.4688C12.7969 91.4688 10.4062 90.9922 8.25 90.0391C6.09375 89.0703 4.44531 87.75 3.30469 86.0781C2.17969 84.4062 1.61719 82.4688 1.61719 80.2656H8.67188C8.67188 84.0312 10.9219 85.9141 15.4219 85.9141C17.0938 85.9141 18.3984 85.5781 19.3359 84.9062C20.2734 84.2188 20.7422 83.2656 20.7422 82.0469ZM60.3516 91H53.3203V76.375H39.6094V91H32.5781V56.875H39.6094V70.7031H53.3203V56.875H60.3516V91ZM79.125 82.5391L86.8594 56.875H94.6875L82.8047 91H75.4688L63.6328 56.875H71.4375L79.125 82.5391ZM125.625 74.7109C125.625 78.0703 125.031 81.0156 123.844 83.5469C122.656 86.0781 120.953 88.0312 118.734 89.4062C116.531 90.7812 114 91.4688 111.141 91.4688C108.312 91.4688 105.789 90.7891 103.57 89.4297C101.352 88.0703 99.6328 86.1328 98.4141 83.6172C97.1953 81.0859 96.5781 78.1797 96.5625 74.8984V73.2109C96.5625 69.8516 97.1641 66.8984 98.3672 64.3516C99.5859 61.7891 101.297 59.8281 103.5 58.4688C105.719 57.0938 108.25 56.4062 111.094 56.4062C113.938 56.4062 116.461 57.0938 118.664 58.4688C120.883 59.8281 122.594 61.7891 123.797 64.3516C125.016 66.8984 125.625 69.8438 125.625 73.1875V74.7109ZM118.5 73.1641C118.5 69.5859 117.859 66.8672 116.578 65.0078C115.297 63.1484 113.469 62.2188 111.094 62.2188C108.734 62.2188 106.914 63.1406 105.633 64.9844C104.352 66.8125 103.703 69.5 103.688 73.0469V74.7109C103.688 78.1953 104.328 80.8984 105.609 82.8203C106.891 84.7422 108.734 85.7031 111.141 85.7031C113.5 85.7031 115.312 84.7812 116.578 82.9375C117.844 81.0781 118.484 78.375 118.5 74.8281V73.1641ZM143.367 78.5078H137.766V91H130.734V56.875H143.414C147.445 56.875 150.555 57.7734 152.742 59.5703C154.93 61.3672 156.023 63.9062 156.023 67.1875C156.023 69.5156 155.516 71.4609 154.5 73.0234C153.5 74.5703 151.977 75.8047 149.93 76.7266L157.312 90.6719V91H149.766L143.367 78.5078ZM137.766 72.8125H143.438C145.203 72.8125 146.57 72.3672 147.539 71.4766C148.508 70.5703 148.992 69.3281 148.992 67.75C148.992 66.1406 148.531 64.875 147.609 63.9531C146.703 63.0312 145.305 62.5703 143.414 62.5703H137.766V72.8125ZM181.922 76.2109H168.422V85.3516H184.266V91H161.391V56.875H184.219V62.5703H168.422V70.7031H181.922V76.2109ZM216.141 91H209.109L195.422 68.5469V91H188.391V56.875H195.422L209.133 79.375V56.875H216.141V91Z" fill="black"/>
</svg>
