<?xml version="1.0" encoding="utf-8"?>
<!-- Generator: Adobe Illustrator 23.0.2, SVG Export Plug-In . SVG Version: 6.00 Build 0)  -->
<svg version="1.1" id="Layer_1" xmlns="http://www.w3.org/2000/svg" xmlns:xlink="http://www.w3.org/1999/xlink" x="0px" y="0px"
	 viewBox="0 0 384 126" style="enable-background:new 0 0 384 126;" xml:space="preserve">
<g>
	<path d="M112.7,50.3L103.2,21h4.1l4.6,14.4c1.3,3.9,2.3,7.5,3.1,10.9h0.1c0.8-3.4,2-7.1,3.3-10.9l4.9-14.4h4l-10.5,29.2H112.7z"/>
	<path d="M134.3,21v29.2h-3.8V21H134.3z"/>
	<path d="M140.9,21h3.8v14.1h0.1c0.8-1.1,1.6-2.2,2.3-3.1l8.9-11h4.7l-10.6,12.4l11.4,16.8h-4.5l-9.6-14.4l-2.8,3.2v11.1h-3.8V21z"
		/>
	<path d="M170.8,24.2H162V21h21.6v3.2h-8.9v26h-3.8V24.2z"/>
	<path d="M210.7,35.3c0,10.1-6.1,15.4-13.6,15.4c-7.7,0-13.1-6-13.1-14.8c0-9.3,5.8-15.4,13.6-15.4
		C205.5,20.6,210.7,26.7,210.7,35.3z M188,35.8c0,6.2,3.4,11.8,9.3,11.8c6,0,9.4-5.5,9.4-12.1c0-5.8-3-11.9-9.3-11.9
		C191.1,23.6,188,29.4,188,35.8z"/>
	<path d="M215.6,21.4c1.9-0.4,4.6-0.6,7.2-0.6c4,0,6.6,0.7,8.5,2.4c1.5,1.3,2.3,3.3,2.3,5.6c0,3.9-2.4,6.4-5.5,7.5v0.1
		c2.3,0.8,3.6,2.9,4.3,5.9c1,4.1,1.6,6.9,2.3,8h-3.9c-0.5-0.8-1.1-3.3-2-7c-0.9-4-2.4-5.6-5.9-5.7h-3.6v12.7h-3.8V21.4z M219.4,34.7
		h3.9c4,0,6.6-2.2,6.6-5.6c0-3.8-2.7-5.4-6.7-5.5c-1.8,0-3.1,0.2-3.7,0.3V34.7z"/>
	<path d="M242.7,21v29.2h-3.8V21H242.7z"/>
	<path d="M254,41.1l-3,9.2h-3.9L257,21h4.6l10,29.2h-4l-3.1-9.2H254z M263.6,38.1l-2.9-8.4c-0.7-1.9-1.1-3.6-1.5-5.3h-0.1
		c-0.4,1.7-0.9,3.5-1.5,5.3l-2.9,8.5H263.6z"/>
	<path d="M105.8,97.7c1.7,1,4.2,1.9,6.8,1.9c3.9,0,6.1-2,6.1-5c0-2.7-1.6-4.3-5.5-5.8c-4.8-1.7-7.7-4.2-7.7-8.3
		c0-4.6,3.8-7.9,9.5-7.9c3,0,5.2,0.7,6.5,1.4l-1,3.1c-1-0.5-2.9-1.4-5.6-1.4c-4,0-5.5,2.4-5.5,4.4c0,2.7,1.8,4.1,5.8,5.6
		c4.9,1.9,7.5,4.3,7.5,8.6c0,4.5-3.3,8.4-10.2,8.4c-2.8,0-5.9-0.8-7.5-1.9L105.8,97.7z"/>
	<path d="M131.5,73.1v12.2h14.1V73.1h3.8v29.2h-3.8V88.6h-14.1v13.7h-3.8V73.1H131.5z"/>
	<path d="M162.4,102.3l-9.5-29.2h4.1l4.6,14.4c1.3,3.9,2.3,7.5,3.1,10.9h0.1c0.8-3.4,2-7.1,3.3-10.9l4.9-14.4h4l-10.5,29.2H162.4z"
		/>
	<path d="M205.2,87.4c0,10.1-6.1,15.4-13.6,15.4c-7.7,0-13.1-6-13.1-14.8c0-9.3,5.8-15.4,13.6-15.4C200,72.6,205.2,78.7,205.2,87.4z
		 M182.5,87.9c0,6.2,3.4,11.8,9.3,11.8c6,0,9.4-5.5,9.4-12.1c0-5.8-3-11.9-9.3-11.9C185.6,75.7,182.5,81.5,182.5,87.9z"/>
	<path d="M210.1,73.5c1.9-0.4,4.6-0.6,7.2-0.6c4,0,6.6,0.7,8.5,2.4c1.5,1.3,2.3,3.3,2.3,5.6c0,3.9-2.4,6.4-5.5,7.5v0.1
		c2.3,0.8,3.6,2.9,4.3,5.9c1,4.1,1.6,6.9,2.3,8h-3.9c-0.5-0.8-1.1-3.3-2-7c-0.9-4-2.4-5.6-5.9-5.7h-3.6v12.7h-3.8V73.5z M213.8,86.8
		h3.9c4,0,6.6-2.2,6.6-5.6c0-3.8-2.7-5.4-6.7-5.5c-1.8,0-3.1,0.2-3.7,0.3V86.8z"/>
	<path d="M248.5,88.6h-11.4v10.5h12.7v3.2h-16.4V73.1h15.8v3.2h-12v9.2h11.4V88.6z"/>
	<path d="M254.8,102.3V73.1h4.1l9.4,14.8c2.2,3.4,3.9,6.5,5.2,9.5l0.1,0c-0.3-3.9-0.4-7.5-0.4-12V73.1h3.6v29.2h-3.8l-9.3-14.8
		c-2-3.3-4-6.6-5.5-9.8l-0.1,0c0.2,3.7,0.3,7.2,0.3,12.1v12.5H254.8z"/>
</g>
</svg>
